<svg width="22" height="22" viewBox="0 0 22 22" fill="none" xmlns="http://www.w3.org/2000/svg">
<path d="M11 0.5C5.20156 0.5 0.5 5.20156 0.5 11C0.5 16.7984 5.20156 21.5 11 21.5C16.7984 21.5 21.5 16.7984 21.5 11C21.5 5.20156 16.7984 0.5 11 0.5ZM11 19.7188C6.18594 19.7188 2.28125 15.8141 2.28125 11C2.28125 6.18594 6.18594 2.28125 11 2.28125C15.8141 2.28125 19.7188 6.18594 19.7188 11C19.7188 15.8141 15.8141 19.7188 11 19.7188ZM15.65 5.93516C15.5582 5.89929 15.4603 5.88186 15.3617 5.88387C15.2632 5.88588 15.166 5.90729 15.0758 5.94687L8.72422 8.72656L5.94687 15.0781C5.8625 15.2703 5.8625 15.4883 5.94687 15.6805C6.02656 15.8633 6.17422 16.0063 6.36172 16.0789C6.45078 16.1141 6.54219 16.1305 6.63594 16.1305C6.73906 16.1305 6.83984 16.1094 6.93594 16.0672L13.2875 13.2875L16.0648 6.93594C16.1054 6.84324 16.1268 6.74332 16.1277 6.64216C16.1287 6.541 16.1092 6.44068 16.0705 6.34723C16.0317 6.25377 15.9745 6.16911 15.9023 6.0983C15.83 6.02749 15.7442 5.972 15.65 5.93516ZM12.5187 11.525L13.1328 12.1391L12.1391 13.1328L11.525 12.5187L7.90625 14.1031L9.48828 10.4844L8.89062 9.88437L9.88437 8.89062L10.482 9.48828L14.1031 7.90625L12.5187 11.525ZM9.88437 8.89062L8.89062 9.88437L9.48828 10.4844L11.525 12.5187L12.1391 13.1328L13.1328 12.1391L12.5187 11.525L10.4844 9.48828L9.88437 8.89062Z" fill="black"/>
</svg>
