<svg width="21" height="19" viewBox="0 0 21 19" fill="none" xmlns="http://www.w3.org/2000/svg">
<path d="M10.5 0.3125C16.2996 0.3125 21 4.13105 21 8.84375C21 10.7961 20.1838 12.5844 18.8302 14.024C19.4414 15.64 20.7129 17.01 20.7334 17.0264C21.0041 17.3135 21.0779 17.7318 20.922 18.0928C20.7662 18.4537 20.4093 18.6875 20.0156 18.6875C17.4931 18.6875 15.5039 17.6334 14.3103 16.7885C13.125 17.1617 11.8453 17.375 10.5 17.375C4.70036 17.375 -3.43323e-05 13.5564 -3.43323e-05 8.84375C-3.43323e-05 4.13105 4.70036 0.3125 10.5 0.3125ZM10.5 15.4062C11.5951 15.4062 12.6779 15.2381 13.7156 14.91L14.6466 14.6146L15.4464 15.1807C16.033 15.5949 16.8369 16.0584 17.8048 16.3701C17.5054 15.8738 17.2142 15.316 16.9886 14.7213L16.5539 13.5688L17.3988 12.6746C18.1412 11.883 19.0312 10.5746 19.0312 8.84375C19.0312 5.22617 15.2045 2.28125 10.5 2.28125C5.79547 2.28125 1.96872 5.22617 1.96872 8.84375C1.96872 12.4613 5.79547 15.4062 10.5 15.4062Z" fill="black"/>
</svg>
