<svg width="16" height="16" viewBox="0 0 16 16" fill="none" xmlns="http://www.w3.org/2000/svg">
<path d="M14.0531 9.97183H13.6281C13.5937 9.96245 13.5625 9.94683 13.5281 9.94058C12.6343 9.80308 11.9281 9.05933 11.8687 8.18747C11.8 7.21247 12.3562 6.38747 13.2625 6.11872C13.3812 6.08434 13.5062 6.05934 13.6281 6.02809H14.0531C14.0812 6.03747 14.1062 6.05309 14.1374 6.05622C14.9624 6.19059 15.5906 6.78434 15.7687 7.59684C15.7812 7.65934 15.7999 7.72184 15.8156 7.78434V8.20934C15.8062 8.23747 15.7906 8.26559 15.7874 8.29372C15.6562 9.10622 15.0781 9.72495 14.2749 9.91247C14.1968 9.93122 14.1249 9.95309 14.053 9.97184L14.0531 9.97183ZM2.04061 6.02808L2.46564 6.02809C2.50002 6.03747 2.53127 6.05309 2.56564 6.05622C3.46564 6.19684 4.16877 6.94372 4.22502 7.82497C4.28752 8.79684 3.72502 9.61872 2.81564 9.88434C2.7 9.91872 2.58127 9.94372 2.46563 9.97184H2.04063C2.0125 9.96247 1.9875 9.94684 1.95938 9.94059C1.14688 9.79059 0.615625 9.31872 0.3625 8.53122C0.328125 8.42809 0.309375 8.31872 0.28125 8.21247V7.78747C0.290625 7.75934 0.30625 7.73122 0.309375 7.70309C0.44375 6.88747 1.01875 6.27184 1.82187 6.08434C1.89688 6.06558 1.96875 6.04683 2.04061 6.02808ZM7.83437 6.02809H8.25938C8.29375 6.03747 8.325 6.05309 8.35938 6.05934C9.25625 6.19997 9.97812 6.97497 10.0156 7.84997C10.0594 8.83434 9.46562 9.66872 8.55 9.90309C8.45312 9.92809 8.35625 9.94997 8.25938 9.97184H7.83437C7.8 9.96247 7.76875 9.94684 7.73438 9.94059C6.8375 9.80309 6.11561 9.02497 6.075 8.14997C6.02812 7.16559 6.625 6.33122 7.54063 6.09684C7.64062 6.07184 7.7375 6.04997 7.83437 6.02809Z" fill="black"/>
</svg>
