<svg width="130" height="130" viewBox="0 0 130 130" fill="none" xmlns="http://www.w3.org/2000/svg">
<g clip-path="url(#clip0_88_579)">
<path d="M81.5399 19.0734L22.8091 40.4497C21.2515 41.0166 19.9828 42.1791 19.2823 43.6814C18.5818 45.1837 18.5067 46.9027 19.0737 48.4604L40.4499 107.191C41.0169 108.749 42.1793 110.017 43.6816 110.718C45.1839 111.418 46.903 111.494 48.4606 110.927L107.191 89.5503C108.749 88.9834 110.018 87.8209 110.718 86.3186C111.419 84.8163 111.494 83.0973 110.927 81.5396L89.5506 22.8088C88.9837 21.2512 87.8212 19.9826 86.3189 19.2821C84.8166 18.5815 83.0975 18.5065 81.5399 19.0734Z" stroke="black" stroke-width="5" stroke-linecap="round" stroke-linejoin="round"/>
<path d="M108.789 75.6666L80.1292 63.9276L66.9651 88.6723L48.986 81.9139L37.5998 99.3604M52.5416 67.3176C55.1376 66.3727 57.252 64.4352 58.4196 61.9314C59.5871 59.4275 59.7122 56.5625 58.7673 53.9664C57.8224 51.3703 55.885 49.2559 53.3811 48.0884C50.8773 46.9208 48.0122 46.7957 45.4161 47.7406C42.8201 48.6855 40.7057 50.623 39.5381 53.1268C38.3706 55.6307 38.2455 58.4957 39.1904 61.0918C40.1353 63.6879 42.0727 65.8023 44.5766 66.9698C47.0804 68.1374 49.9455 68.2625 52.5416 67.3176V67.3176Z" stroke="black" stroke-width="5" stroke-linecap="round" stroke-linejoin="round"/>
</g>
<defs>
<clipPath id="clip0_88_579">
<rect width="100" height="100" fill="white" transform="translate(0.914551 35.1163) rotate(-20)"/>
</clipPath>
</defs>
</svg>
