<svg width="129" height="130" viewBox="0 0 129 130" fill="none" xmlns="http://www.w3.org/2000/svg">
<g clip-path="url(#clip0_88_583)">
<path d="M63.3694 49.1497C63.0947 48.798 62.7309 48.5263 62.3157 48.3627C61.9005 48.1991 61.449 48.1496 61.0083 48.2194C60.5675 48.2892 60.1534 48.4757 59.8091 48.7596C59.4647 49.0434 59.2026 49.4143 59.05 49.8336L50.243 74.0307C50.0884 74.4553 50.0517 74.9138 50.1369 75.3575C50.2221 75.8013 50.426 76.2136 50.7269 76.5508C51.0277 76.8879 51.4143 77.1371 51.8456 77.2721C52.2768 77.407 52.7365 77.4225 53.1759 77.317L76.4998 71.7112C76.9059 71.6134 77.2811 71.4154 77.591 71.1353C77.9009 70.8552 78.1357 70.5019 78.2739 70.1076C78.4121 69.7134 78.4493 69.2908 78.3821 68.8785C78.3149 68.4662 78.1455 68.0773 77.8893 67.7474L63.3741 49.1514L63.3694 49.1497ZM50.3008 22.7052C47.1856 21.5713 43.7475 21.7214 40.7429 23.1225C37.7383 24.5236 35.4133 27.0608 34.2794 30.1761L18.8885 72.4623C17.7547 75.5775 17.9048 79.0156 19.3058 82.0202C20.7069 85.0248 23.2442 87.3498 26.3594 88.4837L78.0425 107.295C81.1578 108.429 84.5959 108.279 87.6005 106.877C90.6051 105.476 92.9301 102.939 94.0639 99.8239L109.455 57.5377C110.589 54.4224 110.439 50.9843 109.038 47.9797C107.636 44.9751 105.099 42.6502 101.984 41.5163L50.3008 22.7052ZM38.9779 31.8862C39.6582 30.017 41.0532 28.4947 42.856 27.654C44.6587 26.8134 46.7216 26.7233 48.5907 27.4036L100.274 46.2148C102.143 46.8951 103.665 48.2901 104.506 50.0928C105.347 51.8956 105.437 53.9584 104.756 55.8276L89.3655 98.1138C88.6852 99.9829 87.2902 101.505 85.4874 102.346C83.6847 103.187 81.6218 103.277 79.7526 102.596L28.0695 83.7852C26.2004 83.1049 24.678 81.7099 23.8374 79.9071C22.9967 78.1044 22.9067 76.0415 23.587 74.1724L38.9779 31.8862Z" fill="black"/>
</g>
<defs>
<clipPath id="clip0_88_583">
<rect width="100" height="100" fill="white" transform="translate(34.2881 0.914307) rotate(20)"/>
</clipPath>
</defs>
</svg>
