<svg width="19" height="19" viewBox="0 0 19 19" fill="none" xmlns="http://www.w3.org/2000/svg">
<g clip-path="url(#clip0_7_44)">
<path d="M19 9.55818C19 4.27856 14.7464 -0.00119019 9.49999 -0.00119019C4.25124 -2.68547e-06 -0.00238037 4.27856 -0.00238037 9.55937C-0.00238037 14.3296 3.47224 18.2839 8.01324 19.0012V12.3215H5.60262V9.55937H8.01562V7.45156C8.01562 5.05637 9.43468 3.7335 11.6042 3.7335C12.6445 3.7335 13.7311 3.91993 13.7311 3.91993V6.27118H12.5329C11.3537 6.27118 10.9856 7.00862 10.9856 7.76506V9.55818H13.6194L13.1991 12.3203H10.9844V19C15.5254 18.2827 19 14.3284 19 9.55818Z" fill="white"/>
</g>
<defs>
<clipPath id="clip0_7_44">
<rect width="19" height="19" fill="white"/>
</clipPath>
</defs>
</svg>
