<svg width="16" height="19" viewBox="0 0 16 19" fill="none" xmlns="http://www.w3.org/2000/svg">
<path d="M0.293 7.70697L7.293 0.706971C7.48053 0.5195 7.73484 0.414185 8 0.414185C8.26516 0.414185 8.51947 0.5195 8.707 0.706971L15.707 7.70697C15.8946 7.89446 15.9999 8.14878 16 8.41397V18C16 18.2652 15.8946 18.5195 15.7071 18.7071C15.5196 18.8946 15.2652 19 15 19H10V12H6V19H1C0.734784 19 0.48043 18.8946 0.292893 18.7071C0.105357 18.5195 0 18.2652 0 18V8.41397C5.66374e-05 8.14878 0.105451 7.89446 0.293 7.70697Z" fill="black"/>
</svg>
