<svg width="15" height="21" viewBox="0 0 15 21" fill="none" xmlns="http://www.w3.org/2000/svg">
<mask id="path-1-inside-1_73_143" fill="white">
<path d="M14.25 0H0.75L0 0.75V20.25L1.308 20.7525L7.5 13.8705L13.692 20.7525L15 20.25V0.75L14.25 0ZM13.5 18.3L8.058 12.2475H6.942L1.5 18.3V1.5H13.5V18.3Z"/>
</mask>
<path d="M14.25 0H0.75L0 0.75V20.25L1.308 20.7525L7.5 13.8705L13.692 20.7525L15 20.25V0.75L14.25 0ZM13.5 18.3L8.058 12.2475H6.942L1.5 18.3V1.5H13.5V18.3Z" fill="black"/>
<path d="M14.25 0L16.3713 -2.12132L15.4926 -3H14.25V0ZM0.75 0V-3H-0.492641L-1.37132 -2.12132L0.75 0ZM0 0.75L-2.12132 -1.37132L-3 -0.492641V0.75H0ZM0 20.25H-3V22.3112L-1.07586 23.0505L0 20.25ZM1.308 20.7525L0.232139 23.5529L2.15815 24.2929L3.53817 22.7591L1.308 20.7525ZM7.5 13.8705L9.73017 11.8639L7.5 9.38524L5.26983 11.8639L7.5 13.8705ZM13.692 20.7525L11.4618 22.7591L12.8418 24.2929L14.7679 23.5529L13.692 20.7525ZM15 20.25L16.0759 23.0504L18 22.3112V20.25H15ZM15 0.75H18V-0.492641L17.1213 -1.37132L15 0.75ZM13.5 18.3L11.2692 20.3058L16.5 26.1235V18.3H13.5ZM8.058 12.2475L10.2888 10.2417L9.39495 9.2475H8.058V12.2475ZM6.942 12.2475V9.2475H5.60505L4.71116 10.2417L6.942 12.2475ZM1.5 18.3H-1.5V26.1235L3.73084 20.3058L1.5 18.3ZM1.5 1.5V-1.5H-1.5V1.5H1.5ZM13.5 1.5H16.5V-1.5H13.5V1.5ZM14.25 -3H0.75V3H14.25V-3ZM-1.37132 -2.12132L-2.12132 -1.37132L2.12132 2.87132L2.87132 2.12132L-1.37132 -2.12132ZM-3 0.75V20.25H3V0.75H-3ZM-1.07586 23.0505L0.232139 23.5529L2.38386 17.952L1.07586 17.4495L-1.07586 23.0505ZM3.53817 22.7591L9.73017 15.8771L5.26983 11.8639L-0.922173 18.7459L3.53817 22.7591ZM5.26983 15.8771L11.4618 22.7591L15.9222 18.7459L9.73017 11.8639L5.26983 15.8771ZM14.7679 23.5529L16.0759 23.0504L13.9241 17.4496L12.6161 17.952L14.7679 23.5529ZM18 20.25V0.75H12V20.25H18ZM17.1213 -1.37132L16.3713 -2.12132L12.1287 2.12132L12.8787 2.87132L17.1213 -1.37132ZM15.7308 16.2942L10.2888 10.2417L5.82716 14.2533L11.2692 20.3058L15.7308 16.2942ZM8.058 9.2475H6.942V15.2475H8.058V9.2475ZM4.71116 10.2417L-0.730844 16.2942L3.73084 20.3058L9.17284 14.2533L4.71116 10.2417ZM4.5 18.3V1.5H-1.5V18.3H4.5ZM1.5 4.5H13.5V-1.5H1.5V4.5ZM10.5 1.5V18.3H16.5V1.5H10.5Z" fill="black" mask="url(#path-1-inside-1_73_143)"/>
</svg>
