<svg width="137" height="45" viewBox="0 0 137 45" fill="none" xmlns="http://www.w3.org/2000/svg">
<g clip-path="url(#clip0_66_14550)">
<path d="M126.09 0.00014625H10.916C10.4962 0.00014625 10.0814 0.00014625 9.66266 0.00239625C9.31216 0.00464625 8.96445 0.0111825 8.61058 0.0166838C7.84181 0.0255733 7.07486 0.0920321 6.31637 0.215483C5.55895 0.341621 4.82526 0.579427 4.14011 0.920858C3.45579 1.26518 2.83052 1.71258 2.28696 2.24685C1.74055 2.77961 1.28508 3.39542 0.938051 4.07058C0.590067 4.74439 0.348774 5.46645 0.222506 6.21181C0.0950369 6.95623 0.0264447 7.70923 0.0173448 8.46406C0.0067204 8.80899 0.00559842 9.15506 0 9.50003V35.5036C0.00559842 35.8529 0.0067204 36.1913 0.0173448 36.5407C0.0264475 37.2955 0.0950397 38.0485 0.222506 38.7929C0.348426 39.5386 0.589733 40.2611 0.938051 40.9352C1.28492 41.6082 1.74046 42.2215 2.28696 42.7513C2.82846 43.2879 3.45414 43.7356 4.14011 44.0773C4.82525 44.4197 5.55887 44.6589 6.31637 44.787C7.07498 44.9094 7.84186 44.9759 8.61058 44.9859C8.96445 44.9935 9.31216 44.9979 9.66266 44.9979C10.0814 45.0002 10.4962 45.0002 10.916 45.0002H126.09C126.502 45.0002 126.92 45.0002 127.331 44.9979C127.68 44.9979 128.038 44.9935 128.387 44.9859C129.154 44.9764 129.919 44.91 130.676 44.787C131.436 44.658 132.173 44.4188 132.861 44.0773C133.546 43.7354 134.172 43.2877 134.713 42.7513C135.258 42.2194 135.714 41.6065 136.065 40.9352C136.411 40.2606 136.65 39.5382 136.774 38.7929C136.902 38.0484 136.973 37.2956 136.987 36.5407C136.991 36.1913 136.991 35.8529 136.991 35.5036C137 35.0949 137 34.6884 137 34.273V10.7283C137 10.3163 137 9.90762 136.991 9.50003C136.991 9.15506 136.991 8.80899 136.987 8.46402C136.973 7.70912 136.902 6.95629 136.774 6.21177C136.65 5.46684 136.411 4.74484 136.065 4.07053C135.359 2.71724 134.238 1.61567 132.861 0.920756C132.173 0.58016 131.436 0.342417 130.676 0.215381C129.919 0.0913869 129.154 0.024905 128.387 0.0165263C128.038 0.0110363 127.68 0.00444375 127.331 0.00225C126.92 0 126.502 0 126.09 0V0.00014625Z" fill="black"/>
<path d="M9.66823 44.0156C9.31941 44.0156 8.97901 44.0112 8.63293 44.0036C7.91599 43.9944 7.20073 43.9331 6.49301 43.8201C5.83309 43.7084 5.19381 43.5007 4.59625 43.2037C4.00417 42.9092 3.46415 42.5231 2.99687 42.06C2.52282 41.6025 2.12816 41.0718 1.82851 40.489C1.52557 39.9024 1.31591 39.2736 1.20685 38.6246C1.08907 37.9273 1.02535 37.2221 1.01623 36.5153C1.00897 36.278 0.999466 35.488 0.999466 35.488V9.49988C0.999466 9.49988 1.00959 8.72205 1.01628 8.49353C1.02501 7.78779 1.08837 7.08373 1.20579 6.38745C1.31506 5.73666 1.52488 5.10609 1.82799 4.51758C2.12653 3.93519 2.519 3.40409 2.99019 2.94489C3.46085 2.48132 4.0026 2.09318 4.59569 1.79461C5.19188 1.49861 5.82995 1.29232 6.48853 1.18268C7.19857 1.06857 7.91632 1.00687 8.63575 0.998111L9.66879 0.984375H127.326L128.371 0.998663C129.084 1.00699 129.795 1.06813 130.499 1.18158C131.164 1.2926 131.809 1.50032 132.412 1.79791C133.6 2.39961 134.566 3.35156 135.176 4.52033C135.475 5.10477 135.681 5.7302 135.789 6.37536C135.908 7.07736 135.974 7.78696 135.988 8.49848C135.991 8.81708 135.991 9.1593 135.991 9.49988C136 9.92176 136 10.3233 136 10.7281V34.2729C136 34.6816 136 35.0804 135.991 35.4825C135.991 35.8484 135.991 36.1835 135.987 36.5284C135.974 37.2272 135.908 37.9242 135.791 38.6136C135.684 39.2673 135.476 39.901 135.173 40.4923C134.871 41.0688 134.479 41.5949 134.01 42.0513C133.543 42.5168 133.002 42.9052 132.408 43.2016C131.807 43.5008 131.163 43.7093 130.499 43.8201C129.791 43.9337 129.076 43.995 128.359 44.0036C128.023 44.0112 127.672 44.0156 127.331 44.0156L126.09 44.0179L9.66823 44.0156Z" fill="white"/>
<path d="M28.618 22.3768C28.6308 21.4003 28.8948 20.4429 29.3853 19.5936C29.8759 18.7443 30.577 18.0308 31.4236 17.5193C30.8858 16.7646 30.1763 16.1434 29.3515 15.7053C28.5266 15.2671 27.6092 15.0239 26.672 14.9951C24.6728 14.7889 22.7346 16.1706 21.7158 16.1706C20.6773 16.1706 19.1088 15.0156 17.4197 15.0497C16.3272 15.0844 15.2624 15.3966 14.3292 15.9559C13.3959 16.5151 12.626 17.3024 12.0945 18.241C9.79204 22.1583 11.5095 27.9153 13.7151 31.0818C14.8186 32.6323 16.1083 34.3642 17.7958 34.3028C19.4472 34.2355 20.064 33.2681 22.0573 33.2681C24.0321 33.2681 24.6107 34.3028 26.3325 34.2638C28.1045 34.2355 29.221 32.7064 30.2858 31.1412C31.0787 30.0364 31.6888 28.8153 32.0935 27.5233C31.0641 27.0954 30.1855 26.3793 29.5675 25.4641C28.9494 24.5489 28.6192 23.4751 28.618 22.3768Z" fill="black"/>
<path d="M25.3659 12.9121C26.3321 11.7724 26.8081 10.3075 26.6928 8.82849C25.2167 8.98083 23.8532 9.67406 22.874 10.77C22.3953 11.3055 22.0286 11.9283 21.7949 12.6031C21.5613 13.2779 21.4653 13.9912 21.5124 14.7025C22.2507 14.7099 22.9811 14.5527 23.6486 14.2426C24.3161 13.9325 24.9033 13.4776 25.3659 12.9121Z" fill="black"/>
<path d="M48.4301 30.5321H43.011L41.7096 34.3081H39.4143L44.5472 20.3379H46.932L52.0649 34.3081H49.7304L48.4301 30.5321ZM43.5723 28.7897H47.8678L45.7502 22.6615H45.6909L43.5723 28.7897Z" fill="black"/>
<path d="M63.1502 29.2156C63.1502 32.3808 61.4262 34.4144 58.8245 34.4144C58.1655 34.4482 57.51 34.299 56.9333 33.9839C56.3565 33.6687 55.8817 33.2003 55.5632 32.6324H55.514V37.6773H53.3864V24.1224H55.4458V25.8165H55.4849C55.818 25.2512 56.3008 24.7852 56.882 24.4681C57.4632 24.1511 58.121 23.9947 58.7854 24.0158C61.4161 24.0158 63.1502 26.0593 63.1502 29.2156ZM60.9633 29.2156C60.9633 27.1535 59.8788 25.7978 58.2241 25.7978C56.5985 25.7978 55.5051 27.1821 55.5051 29.2156C55.5051 31.2679 56.5985 32.6423 58.2241 32.6423C59.8788 32.6423 60.9633 31.2964 60.9633 29.2156H60.9633Z" fill="black"/>
<path d="M74.5592 29.2156C74.5592 32.3808 72.8347 34.4144 70.233 34.4144C69.5739 34.4482 68.9185 34.299 68.3417 33.9839C67.7649 33.6687 67.2901 33.2003 66.9717 32.6324H66.9225V37.6773H64.7948V24.1224H66.8543V25.8165H66.8934C67.2265 25.2512 67.7093 24.7852 68.2905 24.4681C68.8717 24.1511 69.5294 23.9947 70.1938 24.0158C72.8246 24.0158 74.5592 26.0593 74.5592 29.2156ZM72.3718 29.2156C72.3718 27.1535 71.2873 25.7978 69.6326 25.7978C68.007 25.7978 66.9135 27.1821 66.9135 29.2156C66.9135 31.2679 68.007 32.6423 69.6326 32.6423C71.2873 32.6423 72.3718 31.2964 72.3718 29.2156Z" fill="black"/>
<path d="M82.0982 30.4157C82.2558 31.8011 83.6254 32.7107 85.497 32.7107C87.2904 32.7107 88.5806 31.801 88.5806 30.5519C88.5806 29.4675 87.8024 28.8183 85.9599 28.3733L84.1174 27.9371C81.5068 27.3175 80.2948 26.1178 80.2948 24.171C80.2948 21.7606 82.4325 20.105 85.4669 20.105C88.4721 20.105 90.5316 21.7606 90.6009 24.171H88.4531C88.3245 22.7769 87.1517 21.9353 85.4378 21.9353C83.7238 21.9353 82.551 22.7868 82.551 24.026C82.551 25.0137 83.3001 25.5949 85.1325 26.0398L86.6989 26.4177C89.6159 27.0955 90.8267 28.2469 90.8267 30.2904C90.8267 32.904 88.7091 34.541 85.3393 34.541C82.1865 34.541 80.0577 32.9425 79.9202 30.4156L82.0982 30.4157Z" fill="black"/>
<path d="M95.4207 21.7131V24.1235H97.3918V25.7792H95.4207V31.3943C95.4207 32.2666 95.8154 32.6731 96.6819 32.6731C96.9159 32.6691 97.1495 32.6529 97.3818 32.6247V34.2705C96.9922 34.342 96.5962 34.3744 96.2 34.3672C94.1015 34.3672 93.283 33.5926 93.283 31.6173V25.7792H91.7759V24.1235H93.283V21.7131H95.4207Z" fill="black"/>
<path d="M98.5323 29.2168C98.5323 26.0121 100.453 23.9983 103.448 23.9983C106.454 23.9983 108.365 26.012 108.365 29.2168C108.365 32.4303 106.464 34.4353 103.448 34.4353C100.434 34.4353 98.5323 32.4303 98.5323 29.2168ZM106.198 29.2168C106.198 27.0184 105.172 25.7209 103.448 25.7209C101.724 25.7209 100.699 27.0283 100.699 29.2168C100.699 31.4239 101.724 32.7115 103.448 32.7115C105.172 32.7115 106.198 31.4239 106.198 29.2168H106.198Z" fill="black"/>
<path d="M110.12 24.1223H112.149V25.8559H112.198C112.335 25.3144 112.658 24.8359 113.112 24.5008C113.566 24.1657 114.124 23.9944 114.691 24.0157C114.936 24.0148 115.181 24.041 115.42 24.0937V26.0493C115.111 25.9563 114.788 25.9136 114.464 25.9229C114.155 25.9106 113.847 25.9642 113.561 26.0799C113.275 26.1956 113.018 26.3708 112.807 26.5935C112.597 26.8161 112.437 27.0809 112.341 27.3696C112.244 27.6584 112.212 27.9643 112.247 28.2663V34.3077H110.12L110.12 24.1223Z" fill="black"/>
<path d="M125.23 31.3174C124.944 33.1664 123.111 34.4353 120.767 34.4353C117.751 34.4353 115.88 32.4501 115.88 29.2651C115.88 26.0703 117.761 23.9983 120.677 23.9983C123.545 23.9983 125.348 25.9341 125.348 29.0223V29.7386H118.027V29.865C117.994 30.2398 118.041 30.6175 118.168 30.9728C118.294 31.3281 118.495 31.653 118.759 31.9258C119.023 32.1987 119.343 32.4133 119.697 32.5554C120.052 32.6975 120.433 32.7638 120.816 32.75C121.319 32.7963 121.823 32.6819 122.255 32.4237C122.686 32.1656 123.021 31.7776 123.21 31.3174L125.23 31.3174ZM118.038 28.2775H123.22C123.239 27.9404 123.187 27.6031 123.067 27.2868C122.947 26.9704 122.762 26.6818 122.523 26.4391C122.285 26.1963 121.997 26.0047 121.68 25.8762C121.362 25.7477 121.021 25.6851 120.677 25.6924C120.331 25.6904 119.987 25.7558 119.667 25.8848C119.346 26.0139 119.055 26.2041 118.809 26.4445C118.564 26.6848 118.369 26.9705 118.237 27.2851C118.104 27.5997 118.037 27.937 118.038 28.2775V28.2775Z" fill="black"/>
<path d="M43.3061 9.82268C43.7522 9.79123 44.1998 9.85744 44.6166 10.0166C45.0335 10.1757 45.4092 10.4237 45.7167 10.7428C46.0242 11.0619 46.2558 11.444 46.3948 11.8617C46.5338 12.2794 46.5767 12.7222 46.5205 13.1581C46.5205 15.3027 45.3409 16.5354 43.3061 16.5354H40.8386V9.82268H43.3061ZM41.8996 15.5861H43.1876C43.5063 15.6048 43.8253 15.5534 44.1213 15.4357C44.4173 15.318 44.6829 15.137 44.8987 14.9057C45.1145 14.6745 45.2751 14.3988 45.3688 14.0989C45.4625 13.7989 45.487 13.4822 45.4404 13.1718C45.4836 12.8626 45.4566 12.5479 45.3615 12.2501C45.2663 11.9524 45.1053 11.679 44.89 11.4496C44.6747 11.2202 44.4104 11.0404 44.1161 10.9231C43.8218 10.8058 43.5047 10.754 43.1876 10.7713H41.8996V15.5861Z" fill="black"/>
<path d="M47.719 14.0011C47.6866 13.6682 47.7253 13.3323 47.8328 13.015C47.9402 12.6977 48.1139 12.4059 48.3429 12.1584C48.5718 11.9109 48.8508 11.7132 49.162 11.5779C49.4732 11.4426 49.8098 11.3727 50.1502 11.3727C50.4905 11.3727 50.8271 11.4426 51.1383 11.5779C51.4495 11.7132 51.7286 11.9109 51.9575 12.1584C52.1864 12.4059 52.3601 12.6977 52.4675 13.015C52.575 13.3323 52.6137 13.6682 52.5813 14.0011C52.6144 14.3344 52.5761 14.6707 52.4689 14.9886C52.3618 15.3064 52.1881 15.5987 51.9592 15.8467C51.7302 16.0946 51.451 16.2928 51.1394 16.4284C50.8279 16.564 50.4909 16.634 50.1502 16.634C49.8094 16.634 49.4724 16.564 49.1609 16.4284C48.8494 16.2928 48.5701 16.0946 48.3412 15.8467C48.1122 15.5987 47.9386 15.3064 47.8314 14.9886C47.7243 14.6707 47.686 14.3344 47.719 14.0011ZM51.5348 14.0011C51.5348 12.903 51.0328 12.2609 50.1518 12.2609C49.2675 12.2609 48.77 12.903 48.77 14.0011C48.77 15.108 49.2675 15.7452 50.1518 15.7452C51.0329 15.7452 51.5348 15.1036 51.5348 14.0011H51.5348Z" fill="black"/>
<path d="M59.0447 16.5354H57.9893L56.9238 12.8044H56.8433L55.7823 16.5354H54.7369L53.3159 11.4696H54.3479L55.2714 15.3351H55.3474L56.4073 11.4696H57.3834L58.4432 15.3351H58.5237L59.4428 11.4696H60.4602L59.0447 16.5354Z" fill="black"/>
<path d="M61.6553 11.4692H62.6347V12.274H62.7108C62.8397 11.9849 63.0573 11.7426 63.333 11.5809C63.6088 11.4191 63.9291 11.3459 64.2492 11.3714C64.5 11.3529 64.7519 11.3901 64.9861 11.4802C65.2204 11.5703 65.431 11.711 65.6024 11.892C65.7737 12.0729 65.9015 12.2895 65.9761 12.5255C66.0508 12.7615 66.0704 13.0111 66.0336 13.2556V16.535H65.0162V13.5066C65.0162 12.6926 64.6562 12.2877 63.9037 12.2877C63.7334 12.2799 63.5634 12.3084 63.4053 12.3712C63.2473 12.434 63.1049 12.5297 62.988 12.6516C62.8711 12.7735 62.7824 12.9189 62.728 13.0776C62.6735 13.2364 62.6547 13.4049 62.6727 13.5715V16.535H61.6553L61.6553 11.4692Z" fill="black"/>
<path d="M67.6548 9.49207H68.6722V16.5354H67.6548V9.49207Z" fill="black"/>
<path d="M70.0865 13.9995C70.0541 13.6666 70.0929 13.3307 70.2003 13.0133C70.3078 12.696 70.4816 12.4042 70.7105 12.1567C70.9394 11.9092 71.2185 11.7115 71.5297 11.5762C71.841 11.4409 72.1776 11.371 72.5179 11.371C72.8583 11.371 73.1949 11.4409 73.5062 11.5762C73.8174 11.7115 74.0964 11.9092 74.3254 12.1567C74.5543 12.4042 74.7281 12.696 74.8355 13.0133C74.943 13.3307 74.9818 13.6666 74.9494 13.9995C74.9824 14.3328 74.944 14.6691 74.8369 14.987C74.7297 15.3048 74.556 15.5971 74.327 15.845C74.098 16.093 73.8188 16.2911 73.5072 16.4267C73.1957 16.5623 72.8587 16.6324 72.5179 16.6324C72.1772 16.6324 71.8402 16.5623 71.5286 16.4267C71.2171 16.2911 70.9378 16.093 70.7089 15.845C70.4799 15.5971 70.3062 15.3048 70.199 14.987C70.0918 14.6691 70.0535 14.3328 70.0865 13.9995ZM73.9023 13.9995C73.9023 12.9014 73.4003 12.2593 72.5193 12.2593C71.635 12.2593 71.1375 12.9014 71.1375 13.9995C71.1375 15.1064 71.635 15.7436 72.5193 15.7436C73.4003 15.7436 73.9023 15.102 73.9023 13.9995H73.9023Z" fill="black"/>
<path d="M76.0205 15.1036C76.0205 14.1918 76.7114 13.6661 77.9379 13.5914L79.3343 13.5123V13.075C79.3343 12.54 78.9743 12.2379 78.2789 12.2379C77.711 12.2379 77.3174 12.4427 77.2045 12.8009H76.2195C76.3235 11.9308 77.1564 11.3727 78.3259 11.3727C79.6183 11.3727 80.3473 12.0049 80.3473 13.075V16.5363H79.3679V15.8243H79.2874C79.124 16.0797 78.8946 16.2879 78.6225 16.4276C78.3505 16.5674 78.0455 16.6336 77.7389 16.6197C77.5225 16.6418 77.3037 16.6191 77.0968 16.5531C76.8898 16.4871 76.6993 16.3792 76.5374 16.2363C76.3755 16.0935 76.2458 15.9189 76.1568 15.7238C76.0678 15.5287 76.0213 15.3174 76.0205 15.1036ZM79.3343 14.6708V14.2472L78.0754 14.3263C77.3655 14.373 77.0435 14.6103 77.0435 15.0569C77.0435 15.5129 77.446 15.7782 77.9994 15.7782C78.1616 15.7943 78.3254 15.7782 78.4811 15.7309C78.6368 15.6835 78.7813 15.6059 78.9058 15.5026C79.0303 15.3992 79.1325 15.2723 79.2061 15.1295C79.2797 14.9866 79.3233 14.8306 79.3343 14.6708Z" fill="black"/>
<path d="M81.6845 14.0003C81.6845 12.3996 82.5219 11.3856 83.8244 11.3856C84.1466 11.371 84.4663 11.4468 84.7463 11.6042C85.0262 11.7616 85.2548 11.994 85.4053 12.2743H85.4813V9.49207H86.4988V16.5354H85.5238V15.735H85.4433C85.2812 16.0135 85.0447 16.243 84.7593 16.3988C84.4739 16.5546 84.1506 16.6307 83.8244 16.6189C82.513 16.6189 81.6845 15.6049 81.6845 14.0003ZM82.7355 14.0003C82.7355 15.0748 83.2509 15.7213 84.1129 15.7213C84.9704 15.7213 85.5004 15.0655 85.5004 14.0047C85.5004 12.9489 84.9648 12.2837 84.1129 12.2837C83.2564 12.2837 82.7354 12.9346 82.7354 14.0003H82.7355Z" fill="black"/>
<path d="M90.7081 14.0011C90.6757 13.6682 90.7145 13.3323 90.8219 13.015C90.9293 12.6977 91.1031 12.4059 91.332 12.1584C91.5609 11.9109 91.8399 11.7132 92.1512 11.5779C92.4624 11.4426 92.799 11.3727 93.1393 11.3727C93.4797 11.3727 93.8162 11.4426 94.1275 11.5779C94.4387 11.7132 94.7177 11.9109 94.9466 12.1584C95.1755 12.4059 95.3493 12.6977 95.4567 13.015C95.5641 13.3323 95.6029 13.6682 95.5705 14.0011C95.6035 14.3344 95.5652 14.6707 95.4581 14.9886C95.3509 15.3064 95.1773 15.5987 94.9483 15.8467C94.7194 16.0946 94.4401 16.2928 94.1286 16.4284C93.817 16.564 93.4801 16.634 93.1393 16.634C92.7986 16.634 92.4616 16.564 92.15 16.4284C91.8385 16.2928 91.5593 16.0946 91.3303 15.8467C91.1013 15.5987 90.9277 15.3064 90.8205 14.9886C90.7134 14.6707 90.6751 14.3344 90.7081 14.0011ZM94.524 14.0011C94.524 12.903 94.022 12.2609 93.141 12.2609C92.2566 12.2609 91.7591 12.903 91.7591 14.0011C91.7591 15.108 92.2567 15.7452 93.141 15.7452C94.022 15.7452 94.524 15.1036 94.524 14.0011Z" fill="black"/>
<path d="M96.9356 11.4692H97.915V12.274H97.991C98.12 11.9849 98.3375 11.7426 98.6133 11.5809C98.8891 11.4191 99.2094 11.3459 99.5295 11.3714C99.7803 11.3529 100.032 11.3901 100.266 11.4802C100.501 11.5703 100.711 11.711 100.883 11.892C101.054 12.0729 101.182 12.2895 101.256 12.5255C101.331 12.7615 101.351 13.0111 101.314 13.2556V16.535H100.296V13.5066C100.296 12.6926 99.9364 12.2877 99.184 12.2877C99.0137 12.2799 98.8437 12.3084 98.6856 12.3712C98.5276 12.434 98.3852 12.5297 98.2683 12.6516C98.1513 12.7735 98.0626 12.9189 98.0082 13.0776C97.9538 13.2364 97.935 13.4049 97.953 13.5715V16.535H96.9356V11.4692Z" fill="black"/>
<path d="M107.063 10.2084V11.4927H108.18V12.3348H107.063V14.9396C107.063 15.4703 107.285 15.7026 107.792 15.7026C107.921 15.7022 108.051 15.6945 108.18 15.6796V16.5123C107.997 16.5444 107.812 16.5615 107.626 16.5634C106.495 16.5634 106.044 16.1723 106.044 15.1956V12.3347H105.226V11.4926H106.044V10.2084H107.063Z" fill="black"/>
<path d="M109.569 9.49207H110.578V12.2837H110.658C110.794 11.992 111.017 11.7483 111.298 11.5859C111.58 11.4235 111.905 11.3503 112.23 11.3762C112.48 11.3629 112.729 11.4038 112.961 11.4961C113.192 11.5884 113.4 11.7298 113.57 11.9102C113.74 12.0906 113.867 12.3055 113.942 12.5396C114.017 12.7738 114.039 13.0214 114.006 13.2648V16.5354H112.987V13.5114C112.987 12.7023 112.604 12.2925 111.885 12.2925C111.71 12.2784 111.534 12.302 111.37 12.3617C111.205 12.4214 111.056 12.5157 110.932 12.638C110.808 12.7603 110.713 12.9077 110.654 13.0699C110.594 13.232 110.571 13.405 110.587 13.5768V16.5354H109.57L109.569 9.49207Z" fill="black"/>
<path d="M119.938 15.1668C119.8 15.6298 119.5 16.0303 119.092 16.2982C118.684 16.5661 118.192 16.6844 117.704 16.6324C117.365 16.6412 117.027 16.5773 116.715 16.4451C116.403 16.3128 116.124 16.1155 115.898 15.8667C115.671 15.6179 115.502 15.3237 115.403 15.0044C115.304 14.6851 115.276 14.3484 115.323 14.0177C115.278 13.6859 115.305 13.3485 115.405 13.0282C115.504 12.708 115.671 12.4124 115.897 12.1614C116.122 11.9105 116.4 11.71 116.711 11.5737C117.022 11.4373 117.359 11.3682 117.7 11.3711C119.134 11.3711 120 12.3341 120 13.9248V14.2737H116.359V14.3297C116.343 14.5156 116.367 14.7027 116.429 14.8791C116.491 15.0554 116.59 15.2171 116.719 15.3537C116.848 15.4903 117.005 15.5989 117.18 15.6725C117.354 15.7461 117.542 15.783 117.732 15.7809C117.976 15.8096 118.222 15.7666 118.441 15.6572C118.659 15.5479 118.839 15.3772 118.959 15.1668L119.938 15.1668ZM116.359 13.5343H118.963C118.976 13.3642 118.953 13.1935 118.894 13.0329C118.836 12.8724 118.744 12.7256 118.624 12.602C118.505 12.4784 118.36 12.3807 118.2 12.3153C118.04 12.2498 117.868 12.218 117.694 12.222C117.518 12.2198 117.344 12.2522 117.181 12.3174C117.018 12.3826 116.87 12.4792 116.745 12.6015C116.621 12.7238 116.523 12.8694 116.456 13.0295C116.39 13.1897 116.357 13.3614 116.359 13.5343H116.359Z" fill="black"/>
</g>
<defs>
<clipPath id="clip0_66_14550">
<rect width="137" height="45" fill="white"/>
</clipPath>
</defs>
</svg>
