<svg width="153" height="45" viewBox="0 0 153 45" fill="none" xmlns="http://www.w3.org/2000/svg">
<path d="M147.12 44.8882H5.76719C2.65744 44.8882 0.113091 42.3695 0.113091 39.2912V5.70908C0.113091 2.63072 2.65744 0.112061 5.76719 0.112061H147.12C150.229 0.112061 152.774 2.63072 152.774 5.70908V39.2912C152.774 42.3695 150.229 44.8882 147.12 44.8882Z" fill="white"/>
<path d="M147.12 0.112061H5.76719C2.65744 0.112061 0.113091 2.63072 0.113091 5.70908V39.2912C0.113091 42.3695 2.65744 44.8882 5.76719 44.8882H147.12C150.229 44.8882 152.774 42.3695 152.774 39.2912V5.70908C152.774 2.63072 150.229 0.112061 147.12 0.112061ZM147.12 1.00758C149.739 1.00758 151.869 3.11699 151.869 5.70908V39.2912C151.869 41.8837 149.739 43.9931 147.12 43.9931H5.76719C3.14866 43.9931 1.01775 41.8837 1.01775 39.2912V5.70908C1.01775 3.11699 3.14866 1.00758 5.76719 1.00758H147.12Z" fill="black"/>
<path d="M53.7348 11.5785C53.7348 12.5163 53.4542 13.2632 52.8923 13.8203C52.2541 14.4828 51.4222 14.8142 50.3996 14.8142C49.4203 14.8142 48.5877 14.4784 47.903 13.8059C47.2171 13.1338 46.8748 12.3004 46.8748 11.306C46.8748 10.3112 47.2171 9.47824 47.903 8.8057C48.5877 8.13361 49.4203 7.79734 50.3996 7.79734C50.8856 7.79734 51.3508 7.89137 51.7925 8.07898C52.2342 8.26704 52.5885 8.51667 52.8535 8.82932L52.2571 9.42003C51.808 8.88876 51.1895 8.62335 50.3996 8.62335C49.6854 8.62335 49.0679 8.87175 48.5467 9.36887C48.0254 9.86656 47.7648 10.5119 47.7648 11.306C47.7648 12.1001 48.0254 12.7454 48.5467 13.2431C49.0679 13.7403 49.6854 13.9886 50.3996 13.9886C51.1573 13.9886 51.789 13.7389 52.2947 13.2388C52.6229 12.9129 52.8128 12.46 52.8636 11.8784H50.3996V11.0716H53.6875C53.7193 11.247 53.7348 11.4154 53.7348 11.5785Z" fill="black"/>
<path d="M53.7348 11.5786H53.6217C53.6208 12.495 53.3504 13.2069 52.8124 13.7413L52.8111 13.7422L52.8107 13.7431C52.1927 14.3827 51.3984 14.701 50.3997 14.7024C49.4465 14.701 48.6487 14.3792 47.9825 13.7268C47.3178 13.0731 46.9891 12.2751 46.9879 11.3061C46.9891 10.3367 47.3178 9.53914 47.9825 8.88586C48.6487 8.23302 49.4465 7.91075 50.3997 7.9094C50.871 7.9094 51.3198 8.00041 51.7478 8.18186C52.1763 8.36466 52.5148 8.60421 52.7669 8.90164L52.8535 8.82944L52.7736 8.7503L52.1772 9.34145L52.2572 9.42015L52.3442 9.34851C51.8741 8.79093 51.2143 8.50985 50.3997 8.51153C49.659 8.51063 49.0074 8.77257 48.4684 9.28862C47.9243 9.80634 47.6509 10.4879 47.6518 11.3061C47.6509 12.1243 47.9243 12.8059 48.4684 13.3236C49.0074 13.8397 49.659 14.1016 50.3997 14.1007C51.1824 14.1021 51.8495 13.8392 52.3746 13.318C52.7254 12.9699 52.9242 12.4876 52.9764 11.8881L52.9869 11.7665H50.5127V11.1837H53.6875V11.0717L53.5761 11.0914C53.6071 11.2611 53.6217 11.4224 53.6217 11.5786H53.7348H53.8479C53.8479 11.4084 53.8319 11.2336 53.7988 11.0517L53.7821 10.9598H50.2866V11.8785V11.9904H52.8636V11.8785L52.751 11.8688C52.7011 12.4321 52.52 12.8563 52.2147 13.1597C51.7288 13.639 51.1325 13.8755 50.3997 13.8768C49.7119 13.8759 49.1284 13.6415 48.6253 13.1628C48.1271 12.6857 47.8792 12.0766 47.8779 11.3061C47.8792 10.5356 48.1271 9.92657 48.6253 9.44948C49.1284 8.97071 49.7119 8.73631 50.3997 8.73541C51.1643 8.7372 51.7417 8.98728 52.1706 9.49235L52.2501 9.58593L52.9335 8.90858L53.0068 8.83604L52.9401 8.75769C52.6622 8.42981 52.2921 8.16955 51.837 7.97634C51.3812 7.78257 50.9002 7.68552 50.3997 7.68552C49.3944 7.68463 48.5268 8.03444 47.8231 8.72668C47.1168 9.41757 46.7608 10.286 46.7617 11.3061C46.7608 12.3258 47.1168 13.1947 47.8235 13.886C48.5268 14.5778 49.3944 14.9272 50.3997 14.9263C51.4466 14.9272 52.315 14.5829 52.9741 13.8978L52.8923 13.8204L52.9723 13.8996C53.558 13.3201 53.8487 12.5375 53.8479 11.5786H53.7348Z" fill="black"/>
<path d="M58.9471 8.773H55.8572V10.9026H58.6437V11.7096H55.8572V13.8392H58.9471V14.6643H54.9861V7.94789H58.9471V8.773Z" fill="black"/>
<path d="M58.9471 8.773V8.66106H55.7441V11.0145H58.5306V11.5974L55.7441 11.5977V13.9511H58.834V14.5524H55.0992V8.05983H58.834V8.773H58.9471V8.66106V8.773H59.0601V7.94789V7.83595H54.873V14.7762H59.0601V13.8392V13.7273H55.9703V11.8216H58.7567V10.9025V10.7906H55.9703V8.88494H59.0601V8.773H58.9471Z" fill="black"/>
<path d="M62.6236 14.6643H61.7512V8.773H59.8561V7.94789H64.5186V8.773H62.6236V14.6643Z" fill="black"/>
<path d="M62.6236 14.6643V14.5524H61.8642V8.66106H59.9692V8.05983H64.4055V8.66106H62.5105V14.6643H62.6236V14.5524V14.6643H62.7367V8.88494H64.6317V7.94789V7.83595H59.7431V8.773V8.88494H61.6381V14.7762H62.6236H62.7367V14.6643H62.6236Z" fill="black"/>
<path d="M67.8921 14.6643V7.94789H68.7636V14.6643H67.8921Z" fill="black"/>
<path d="M67.8921 14.6643H68.0052V8.05983H68.6505V14.5524H67.8921V14.6643H68.0052H67.8921V14.7762H68.7636H68.8767V7.83595H67.8921H67.779V14.7762H67.8921V14.6643Z" fill="black"/>
<path d="M72.6309 14.6643H71.7585V8.773H69.8636V7.94789H74.526V8.773H72.6309V14.6643Z" fill="black"/>
<path d="M72.6309 14.6643V14.5524H71.8715V8.66106H69.9766V8.05983H74.4128V8.66106H72.5178V14.6643H72.6309V14.5524V14.6643H72.744V8.88494H74.639V7.94789V7.83595H69.7505V8.773V8.88494H71.6454V14.7762H72.6309H72.744V14.6643H72.6309Z" fill="black"/>
<path d="M79.021 13.2339C79.5232 13.7372 80.1376 13.9886 80.8643 13.9886C81.591 13.9886 82.2058 13.7372 82.7072 13.2339C83.2098 12.7307 83.4617 12.0873 83.4617 11.306C83.4617 10.5247 83.2098 9.88134 82.7072 9.37805C82.2058 8.87477 81.591 8.62335 80.8643 8.62335C80.1376 8.62335 79.5232 8.87477 79.021 9.37805C78.5196 9.88134 78.2678 10.5247 78.2678 11.306C78.2678 12.0873 78.5196 12.7307 79.021 13.2339ZM83.3521 13.7962C82.685 14.4753 81.8555 14.8142 80.8643 14.8142C79.8721 14.8142 79.043 14.4753 78.3774 13.7962C77.7099 13.118 77.3778 12.2877 77.3778 11.306C77.3778 10.3243 77.7099 9.49391 78.3774 8.81577C79.043 8.13663 79.8721 7.79734 80.8643 7.79734C81.8503 7.79734 82.6776 8.13842 83.3477 8.82014C84.0169 9.50186 84.3518 10.3304 84.3518 11.306C84.3518 12.2877 84.0177 13.118 83.3521 13.7962Z" fill="black"/>
<path d="M79.0209 13.2341L78.9405 13.3128C79.4614 13.8362 80.1112 14.1021 80.8643 14.1007C81.617 14.1021 82.2677 13.8362 82.7876 13.3128C83.3119 12.7889 83.5756 12.1111 83.5748 11.3061C83.5756 10.5012 83.3119 9.82336 82.7876 9.29948C82.2677 8.77604 81.617 8.51019 80.8643 8.51153C80.1112 8.51019 79.4614 8.77604 78.9405 9.29948C78.4175 9.82336 78.1534 10.5012 78.1547 11.3061C78.1534 12.1111 78.4175 12.7889 78.9405 13.3128L79.0209 13.2341L79.1013 13.1554C78.6216 12.6721 78.3818 12.0643 78.3809 11.3061C78.3818 10.5479 78.6216 9.94011 79.1013 9.45687C79.5854 8.97373 80.1636 8.73675 80.8643 8.73541C81.5644 8.73675 82.1439 8.97373 82.6268 9.45687C83.1074 9.94011 83.3473 10.5479 83.3482 11.3061C83.3473 12.0643 83.1074 12.6721 82.6268 13.1554C82.1439 13.6385 81.5644 13.8755 80.8643 13.8768C80.1636 13.8755 79.5854 13.6385 79.1013 13.1554L79.0209 13.2341ZM83.3521 13.7963L83.2713 13.7185C82.6228 14.3762 81.8299 14.701 80.8643 14.7024C79.8982 14.701 79.1053 14.3762 78.4581 13.7185L78.4551 13.7151L78.4581 13.7185C77.8111 13.0587 77.4917 12.2629 77.4908 11.3061C77.4917 10.3494 77.8111 9.55358 78.4581 8.89369C79.1053 8.23604 79.8982 7.91075 80.8643 7.9094C81.8237 7.91075 82.6148 8.23739 83.2669 8.89851C83.9162 9.56142 84.2373 10.356 84.2387 11.3061C84.2373 12.2629 83.9171 13.0587 83.2713 13.7185L83.3521 13.7963L83.4334 13.8741C84.1189 13.1772 84.4656 12.3127 84.4648 11.3061C84.4656 10.3053 84.1176 9.44253 83.4289 8.74246C82.7399 8.0397 81.8767 7.68429 80.8643 7.68552C79.8466 7.68429 78.9808 8.03802 78.2961 8.73809V8.73765C77.6092 9.43504 77.2637 10.2996 77.2647 11.3061C77.2637 12.3127 77.6092 13.1772 78.2961 13.8746L78.2991 13.8777L78.2961 13.8741C78.9808 14.5742 79.8466 14.9272 80.8643 14.9263C81.8816 14.9272 82.7473 14.5742 83.4334 13.8741L83.3521 13.7963Z" fill="black"/>
<path d="M85.5753 14.6643V7.94789H86.6363L89.9338 13.1728H89.9713L89.9338 11.8784V7.94789H90.8062V14.6643H89.8962L86.4463 9.18617H86.4088L86.4463 10.481V14.6643H85.5753Z" fill="black"/>
<path d="M85.5753 14.6643H85.6884V8.05983H86.5736L89.871 13.2848H89.9713H90.0875L90.0469 11.8768V8.05983H90.6931V14.5524H89.959L86.5091 9.07423H86.4088H86.2927L86.3333 10.4828V14.5524H85.5753V14.6643H85.6884H85.5753V14.7762H86.4463H86.5594V10.4792L86.5219 9.18315L86.4088 9.18617V9.29811H86.4463V9.18617L86.3505 9.24572L89.8335 14.7762H90.8062H90.9193V7.83595H89.9338H89.8207V11.8798L89.8582 13.1758L89.9713 13.1728V13.0609H89.9338V13.1728L90.0297 13.1134L86.699 7.83595H85.5753H85.4622V14.7762H85.5753V14.6643Z" fill="black"/>
<path d="M121.039 33.6942H123.149V19.7003H121.039V33.6942ZM140.044 24.7412L137.625 30.8082H137.553L135.043 24.7412H132.77L136.534 33.221L134.388 37.9378H136.59L142.391 24.7412H140.044ZM128.078 32.1047C127.386 32.1047 126.422 31.7628 126.422 30.9163C126.422 29.8361 127.623 29.4221 128.659 29.4221C129.588 29.4221 130.023 29.6201 130.587 29.8904C130.423 31.1865 129.296 32.1047 128.078 32.1047ZM128.332 24.435C126.805 24.435 125.223 25.1014 124.568 26.5777L126.44 27.3516C126.841 26.5777 127.586 26.3254 128.368 26.3254C129.46 26.3254 130.569 26.9738 130.587 28.126V28.2699C130.205 28.0538 129.387 27.7299 128.387 27.7299C126.368 27.7299 124.312 28.8278 124.312 30.8803C124.312 32.7528 125.968 33.9591 127.822 33.9591C129.241 33.9591 130.023 33.329 130.515 32.591H130.587V33.671H132.624V28.3057C132.624 25.8216 130.751 24.435 128.332 24.435ZM115.292 26.4447H112.29V21.6479H115.292C116.869 21.6479 117.765 22.9409 117.765 24.0463C117.765 25.1307 116.869 26.4447 115.292 26.4447ZM115.237 19.7003H110.181V33.6942H112.29V28.3923H115.237C117.576 28.3923 119.875 26.7163 119.875 24.0463C119.875 21.3764 117.576 19.7003 115.237 19.7003ZM87.6669 32.1073C86.2091 32.1073 84.9886 30.8991 84.9886 29.2397C84.9886 27.5629 86.2091 26.3363 87.6669 26.3363C89.1061 26.3363 90.2355 27.5629 90.2355 29.2397C90.2355 30.8991 89.1061 32.1073 87.6669 32.1073ZM90.0898 25.5248H90.0168C89.5433 24.9658 88.632 24.4609 87.4845 24.4609C85.0797 24.4609 82.8755 26.5527 82.8755 29.2397C82.8755 31.9088 85.0797 33.9828 87.4845 33.9828C88.632 33.9828 89.5433 33.4777 90.0168 32.901H90.0898V33.5861C90.0898 35.4079 89.1061 36.3816 87.5211 36.3816C86.2277 36.3816 85.426 35.4616 85.0977 34.6863L83.258 35.4437C83.7863 36.706 85.1892 38.2571 87.5211 38.2571C89.9987 38.2571 92.0938 36.8141 92.0938 33.2976V24.7495H90.0898V25.5248ZM93.5511 33.6942H95.6644V19.6998H93.5511V33.6942ZM98.7798 29.0775C98.725 27.2379 100.219 26.3004 101.294 26.3004C102.132 26.3004 102.842 26.7149 103.079 27.3106L98.7798 29.0775ZM105.338 27.4907C104.938 26.4263 103.717 24.4609 101.221 24.4609C98.7431 24.4609 96.6847 26.3905 96.6847 29.2218C96.6847 31.8909 98.725 33.9828 101.458 33.9828C103.662 33.9828 104.938 32.6482 105.466 31.8729L103.826 30.7907C103.28 31.5843 102.533 32.1073 101.458 32.1073C100.383 32.1073 99.6178 31.6203 99.1257 30.6647L105.556 28.0316L105.338 27.4907ZM54.1027 25.9217V27.9414H58.9851C58.8393 29.0775 58.4567 29.907 57.8737 30.4842C57.1634 31.1877 56.0521 31.963 54.1027 31.963C51.0967 31.963 48.7467 29.5646 48.7467 26.589C48.7467 23.6134 51.0967 21.2146 54.1027 21.2146C55.7242 21.2146 56.9081 21.846 57.7827 22.6575L59.2219 21.233C58.0014 20.0785 56.3798 19.1949 54.1027 19.1949C49.9853 19.1949 46.524 22.5132 46.524 26.589C46.524 30.6647 49.9853 33.9828 54.1027 33.9828C56.3255 33.9828 58.0014 33.2617 59.3129 31.9088C60.6611 30.5743 61.0802 28.6988 61.0802 27.1842C61.0802 26.7149 61.0439 26.2825 60.9707 25.9217H54.1027ZM66.631 32.1073C65.1733 32.1073 63.9161 30.917 63.9161 29.2218C63.9161 27.5086 65.1733 26.3363 66.631 26.3363C68.0882 26.3363 69.3453 27.5086 69.3453 29.2218C69.3453 30.917 68.0882 32.1073 66.631 32.1073ZM66.631 24.4609C63.9709 24.4609 61.8028 26.4626 61.8028 29.2218C61.8028 31.963 63.9709 33.9828 66.631 33.9828C69.2906 33.9828 71.4586 31.963 71.4586 29.2218C71.4586 26.4626 69.2906 24.4609 66.631 24.4609ZM77.1626 32.1073C75.7054 32.1073 74.4481 30.917 74.4481 29.2218C74.4481 27.5086 75.7054 26.3363 77.1626 26.3363C78.6198 26.3363 79.877 27.5086 79.877 29.2218C79.877 30.917 78.6198 32.1073 77.1626 32.1073ZM77.1626 24.4609C74.5025 24.4609 72.335 26.4626 72.335 29.2218C72.335 31.963 74.5025 33.9828 77.1626 33.9828C79.8222 33.9828 81.9903 31.963 81.9903 29.2218C81.9903 26.4626 79.8222 24.4609 77.1626 24.4609Z" fill="black"/>
<path d="M11.9978 36.3689L11.9138 36.2893C11.5847 35.9446 11.3904 35.4095 11.3904 34.7164V34.8795V10.1228C11.3904 10.1206 11.3904 10.1189 11.3904 10.1171C11.3904 10.1192 11.3904 10.121 11.3904 10.1233V10.2868C11.3904 9.53636 11.6169 8.97107 11.9964 8.63211L26.0071 22.5009L11.9978 36.3689ZM11.3904 10.1158C11.3904 10.0541 11.3921 9.9942 11.3953 9.93521C11.3921 9.99375 11.3904 10.0541 11.3904 10.1158ZM11.3953 9.93252C11.3953 9.93174 11.3953 9.93084 11.3956 9.92994C11.3953 9.93084 11.3953 9.93174 11.3953 9.93252ZM11.3956 9.92468C11.3956 9.92424 11.3956 9.92379 11.3956 9.92334C11.3956 9.92379 11.3956 9.92424 11.3956 9.92468Z" fill="url(#paint0_linear_66_14551)"/>
<path d="M30.6766 27.2893L30.7831 27.2294L36.3161 24.1174C36.8436 23.8205 37.1952 23.4606 37.3706 23.0798C37.1956 23.4606 36.844 23.8209 36.3161 24.1178L30.7831 27.2299L30.6766 27.2893ZM30.6779 27.1253L26.0071 22.5008L30.6775 17.8771L36.3161 21.0482C37.0321 21.4509 37.4341 21.97 37.5013 22.5004C37.5013 22.5008 37.5013 22.5017 37.5013 22.5025C37.4341 23.0317 37.0321 23.5512 36.3161 23.9538L30.6779 27.1253Z" fill="url(#paint1_linear_66_14551)"/>
<path d="M12.9965 36.897C12.6051 36.897 12.2636 36.771 11.9973 36.5332L11.9978 36.5327C12.2641 36.7706 12.6061 36.897 12.9974 36.897C13.0314 36.897 13.0658 36.8961 13.1008 36.8944C13.0654 36.8961 13.0305 36.897 12.9965 36.897ZM12.997 36.733C12.6056 36.7334 12.2641 36.607 11.9978 36.3692V36.3688L26.0071 22.5009L30.6779 27.1254L14.2638 36.3574C13.8097 36.6123 13.3794 36.733 12.997 36.733ZM11.9938 36.5301C11.9691 36.5079 11.9448 36.4842 11.9209 36.4597L11.9938 36.5301Z" fill="url(#paint2_linear_66_14551)"/>
<path d="M26.0071 22.501L11.9964 8.63214C12.2627 8.39472 12.6038 8.26878 12.9947 8.26878C13.3782 8.26878 13.8088 8.3899 14.2638 8.64524L30.6775 17.8773L26.0071 22.501ZM30.7831 17.7728L14.2638 8.4818C13.8088 8.22636 13.3782 8.10524 12.9947 8.10524C12.9929 8.10524 12.9917 8.10524 12.9898 8.10524C12.9921 8.10524 12.9938 8.10524 12.9965 8.10524C13.3791 8.10524 13.8092 8.22591 14.2638 8.48136L30.7831 17.7728Z" fill="url(#paint3_linear_66_14551)"/>
<path d="M13.1008 36.8945C13.4563 36.8744 13.85 36.7533 14.2638 36.5211L30.6766 27.2895L14.2638 36.5211C13.8503 36.7537 13.4563 36.8744 13.1008 36.8945ZM11.9973 36.5333L11.9938 36.5303C11.9951 36.5312 11.9964 36.5324 11.9973 36.5333ZM11.9209 36.4599L11.9138 36.4529V36.4525C11.9165 36.4551 11.9186 36.4576 11.9209 36.4599Z" fill="white"/>
<path d="M30.6766 27.2893L30.7831 27.2294L30.6766 27.2893Z" fill="url(#paint4_linear_66_14551)"/>
<path d="M12.9974 36.897C12.6061 36.897 12.2641 36.7706 11.9978 36.5327L11.9973 36.5332C11.9964 36.5323 11.9951 36.531 11.9938 36.5301L11.9209 36.4597C11.9186 36.4575 11.9165 36.4549 11.9138 36.4523L11.9978 36.3692C12.2641 36.607 12.6056 36.7334 12.997 36.733C13.3794 36.733 13.8097 36.6123 14.2638 36.3574L30.6779 27.1254L30.7831 27.2295L30.6766 27.2894L14.2638 36.521C13.85 36.7531 13.4563 36.8742 13.1008 36.8944C13.0658 36.8961 13.0314 36.897 12.9974 36.897Z" fill="url(#paint5_linear_66_14551)"/>
<path d="M11.9138 36.4529C11.5847 36.1082 11.3904 35.573 11.3904 34.88V34.8796C11.3904 35.573 11.5847 36.1078 11.9138 36.4524V36.4529Z" fill="white"/>
<path d="M11.9138 36.4524C11.5847 36.1077 11.3904 35.573 11.3904 34.8795V34.7164C11.3904 35.4094 11.5847 35.9446 11.9138 36.2893L11.9978 36.3689L11.9138 36.4524Z" fill="url(#paint6_linear_66_14551)"/>
<path d="M11.9138 36.4524L11.9978 36.3689V36.3692L11.9138 36.4524Z" fill="url(#paint7_linear_66_14551)"/>
<path d="M37.3706 23.0798C37.4575 22.8909 37.5013 22.6968 37.5013 22.5026C37.5013 22.5022 37.5013 22.5018 37.5013 22.5018C37.5013 22.6963 37.4575 22.8904 37.3706 23.0798Z" fill="white"/>
<path d="M30.7831 27.2295L30.6779 27.1254L36.3161 23.9539C37.0321 23.5512 37.4341 23.0317 37.5013 22.5026C37.5013 22.6968 37.4575 22.8909 37.3706 23.0799C37.1952 23.4607 36.8436 23.8206 36.3161 24.1174L30.7831 27.2295Z" fill="url(#paint8_linear_66_14551)"/>
<path d="M37.5013 22.501V22.5005C37.5008 21.915 37.1055 21.3295 36.3161 20.8852L30.7831 17.7732H30.7826L30.7831 17.7728L36.3161 20.8848C37.1064 21.3291 37.5022 21.9154 37.5013 22.501Z" fill="#404040"/>
<path d="M37.5013 22.5005C37.4341 21.9701 37.0321 21.451 36.3161 21.0483L30.6775 17.8772L30.7826 17.7731H30.7831L36.3161 20.8852C37.1055 21.3295 37.5008 21.9149 37.5013 22.5005Z" fill="url(#paint9_linear_66_14551)"/>
<path d="M11.3904 10.1171C11.3904 10.1166 11.3904 10.1162 11.3904 10.1157C11.3904 10.1162 11.3904 10.1166 11.3904 10.1171ZM11.3953 9.93516C11.3953 9.93427 11.3953 9.93337 11.3953 9.93248C11.3953 9.93337 11.3953 9.93427 11.3953 9.93516ZM11.3956 9.9299C11.3956 9.92811 11.3956 9.92643 11.3956 9.92464C11.3956 9.92643 11.3956 9.92811 11.3956 9.9299ZM11.3956 9.9233C11.4611 8.77334 12.0928 8.10908 12.9863 8.10517C12.5989 8.1074 12.2615 8.23334 11.9973 8.46897V8.46852L11.9942 8.47166C11.9663 8.49651 11.9399 8.52281 11.9138 8.5499C11.6169 8.86076 11.4297 9.32643 11.3956 9.9233Z" fill="#404040"/>
<path d="M11.3904 10.2869V10.1233C11.3904 10.1211 11.3904 10.1193 11.3904 10.1172C11.3904 10.1167 11.3904 10.1163 11.3904 10.1158C11.3904 10.0541 11.3921 9.99381 11.3953 9.93526C11.3953 9.93437 11.3953 9.93347 11.3953 9.93258C11.3953 9.93179 11.3953 9.9309 11.3956 9.93C11.3956 9.92821 11.3956 9.92653 11.3956 9.92474C11.3956 9.92429 11.3956 9.92384 11.3956 9.9234C11.4297 9.32653 11.6169 8.86086 11.9138 8.55L11.9964 8.63216C11.6169 8.97112 11.3904 9.53642 11.3904 10.2869ZM11.9942 8.47175L11.9973 8.46862C11.9964 8.46996 11.9951 8.47086 11.9942 8.47175Z" fill="url(#paint10_linear_66_14551)"/>
<path d="M30.6775 17.8772L14.2638 8.64515C13.8088 8.38981 13.3782 8.26869 12.9947 8.26869C12.6038 8.26869 12.2627 8.39462 11.9964 8.63205L11.9138 8.54988C11.9399 8.52279 11.9664 8.49649 11.9942 8.47164C11.9951 8.47074 11.9964 8.46985 11.9973 8.46895C12.2615 8.23332 12.5989 8.10738 12.9864 8.10515C12.9873 8.10515 12.9885 8.10515 12.9899 8.10515C12.9917 8.10515 12.9929 8.10515 12.9947 8.10515C13.3782 8.10515 13.8088 8.22626 14.2638 8.48171L30.7831 17.7728L30.7826 17.7731L30.6775 17.8772Z" fill="url(#paint11_linear_66_14551)"/>
<defs>
<linearGradient id="paint0_linear_66_14551" x1="24.7647" y1="9.86166" x2="5.97934" y2="28.8387" gradientUnits="userSpaceOnUse">
<stop stop-color="#00A0FF"/>
<stop offset="0.00657445" stop-color="#00A1FF"/>
<stop offset="0.2601" stop-color="#00BEFF"/>
<stop offset="0.5122" stop-color="#00D2FF"/>
<stop offset="0.7604" stop-color="#00DFFF"/>
<stop offset="1" stop-color="#00E3FF"/>
</linearGradient>
<linearGradient id="paint1_linear_66_14551" x1="38.3737" y1="22.5015" x2="11.0112" y2="22.5015" gradientUnits="userSpaceOnUse">
<stop stop-color="#FFE000"/>
<stop offset="0.4087" stop-color="#FFBD00"/>
<stop offset="0.7754" stop-color="#FFA500"/>
<stop offset="1" stop-color="#FF9C00"/>
</linearGradient>
<linearGradient id="paint2_linear_66_14551" x1="28.188" y1="25.0703" x2="2.71356" y2="50.8045" gradientUnits="userSpaceOnUse">
<stop stop-color="#FF3A44"/>
<stop offset="1" stop-color="#C31162"/>
</linearGradient>
<linearGradient id="paint3_linear_66_14551" x1="8.36502" y1="0.309271" x2="19.7404" y2="11.8006" gradientUnits="userSpaceOnUse">
<stop stop-color="#32A071"/>
<stop offset="0.0685" stop-color="#2DA771"/>
<stop offset="0.4762" stop-color="#15CF74"/>
<stop offset="0.8009" stop-color="#06E775"/>
<stop offset="1" stop-color="#00F076"/>
</linearGradient>
<linearGradient id="paint4_linear_66_14551" x1="38.3736" y1="22.5016" x2="11.0116" y2="22.5016" gradientUnits="userSpaceOnUse">
<stop stop-color="#CCB300"/>
<stop offset="0.4087" stop-color="#CC9700"/>
<stop offset="0.7754" stop-color="#CC8400"/>
<stop offset="1" stop-color="#CC7D00"/>
</linearGradient>
<linearGradient id="paint5_linear_66_14551" x1="28.188" y1="25.0703" x2="2.71356" y2="50.8045" gradientUnits="userSpaceOnUse">
<stop stop-color="#CC2E36"/>
<stop offset="1" stop-color="#9C0E4E"/>
</linearGradient>
<linearGradient id="paint6_linear_66_14551" x1="24.7648" y1="9.86166" x2="5.97938" y2="28.8387" gradientUnits="userSpaceOnUse">
<stop stop-color="#008DE0"/>
<stop offset="0.00657445" stop-color="#008DE0"/>
<stop offset="0.2601" stop-color="#00A7E0"/>
<stop offset="0.5122" stop-color="#00B8E0"/>
<stop offset="0.7604" stop-color="#00C4E0"/>
<stop offset="1" stop-color="#00C7E0"/>
</linearGradient>
<linearGradient id="paint7_linear_66_14551" x1="28.1885" y1="25.0703" x2="2.71406" y2="50.8053" gradientUnits="userSpaceOnUse">
<stop stop-color="#E0333C"/>
<stop offset="1" stop-color="#AB0F56"/>
</linearGradient>
<linearGradient id="paint8_linear_66_14551" x1="38.3737" y1="22.5016" x2="11.0113" y2="22.5016" gradientUnits="userSpaceOnUse">
<stop stop-color="#E0C500"/>
<stop offset="0.4087" stop-color="#E0A600"/>
<stop offset="0.7754" stop-color="#E09100"/>
<stop offset="1" stop-color="#E08900"/>
</linearGradient>
<linearGradient id="paint9_linear_66_14551" x1="38.3737" y1="22.5016" x2="11.0113" y2="22.5016" gradientUnits="userSpaceOnUse">
<stop stop-color="#FFE840"/>
<stop offset="0.4087" stop-color="#FFCE40"/>
<stop offset="0.7754" stop-color="#FFBC40"/>
<stop offset="1" stop-color="#FFB540"/>
</linearGradient>
<linearGradient id="paint10_linear_66_14551" x1="24.7648" y1="9.86172" x2="5.97933" y2="28.8387" gradientUnits="userSpaceOnUse">
<stop stop-color="#40B8FF"/>
<stop offset="0.00657445" stop-color="#40B9FF"/>
<stop offset="0.2601" stop-color="#40CEFF"/>
<stop offset="0.5122" stop-color="#40DDFF"/>
<stop offset="0.7604" stop-color="#40E7FF"/>
<stop offset="1" stop-color="#40EAFF"/>
</linearGradient>
<linearGradient id="paint11_linear_66_14551" x1="8.36503" y1="0.309175" x2="19.7404" y2="11.8005" gradientUnits="userSpaceOnUse">
<stop stop-color="#65B895"/>
<stop offset="0.0685" stop-color="#62BD95"/>
<stop offset="0.4762" stop-color="#50DB97"/>
<stop offset="0.8009" stop-color="#44ED98"/>
<stop offset="1" stop-color="#40F498"/>
</linearGradient>
</defs>
</svg>
