<svg width="162" height="50" viewBox="0 0 162 50" fill="none" xmlns="http://www.w3.org/2000/svg">
<path d="M8.52832 0.789084C5.21872 2.2705 1.57947 6.45128 0.43081 11.7098C-1.02653 18.3668 5.03236 21.178 5.5274 20.2608C6.1099 19.173 4.43824 18.8078 4.09688 15.3561C3.65767 10.8925 5.59267 5.90557 8.03442 3.71733C8.48988 3.31733 8.46778 3.88182 8.46778 4.92239C8.46778 6.79904 8.36992 23.5892 8.36992 27.0945C8.36992 31.8397 8.18819 33.3338 7.85269 34.8092C7.52295 36.3096 6.98946 37.3213 7.39137 37.7152C7.84683 38.15 9.78183 37.1145 10.9037 35.4397C12.2457 33.4335 12.7186 31.0222 12.806 28.4054C12.905 25.254 12.8992 20.2434 12.905 17.391C12.905 14.7679 12.9434 7.09932 12.8665 2.48246C12.8444 1.35357 9.90878 0.170948 8.52832 0.789084ZM161.116 25.7002C160.643 25.7002 160.418 26.2298 160.236 27.1183C159.61 30.2174 158.95 30.9164 158.098 30.9164C157.147 30.9164 156.294 29.3825 156.069 26.312C155.899 23.9008 155.926 19.4547 156.146 15.0322C156.191 14.1263 155.959 13.2278 153.682 12.3394C152.699 11.963 151.275 11.3985 150.566 13.2328C148.559 18.403 147.778 22.5189 147.591 24.1837C147.587 24.2709 147.487 24.2834 147.47 24.0839C147.356 22.7481 147.091 20.3194 147.059 15.2142C147.047 14.2272 146.855 13.3736 145.821 12.6796C145.156 12.2334 143.133 11.4334 142.401 12.3805C141.774 13.1568 141.044 15.239 140.28 17.7088C139.663 19.7201 139.235 21.0846 139.235 21.0846C139.235 21.0846 139.239 15.6614 139.251 13.6029C139.251 12.8266 138.756 12.5686 138.608 12.5212C137.931 12.3095 136.595 11.963 136.035 11.963C135.337 11.963 135.172 12.3805 135.172 12.9861C135.172 13.0621 135.056 20.1189 135.056 25.0535V25.7475C134.676 28.018 133.424 31.0996 132.066 31.0996C130.707 31.0996 130.064 29.8111 130.064 23.9307C130.064 20.5014 130.163 19.0086 130.208 16.5263C130.235 15.097 130.289 13.9979 130.285 13.745C130.273 12.9861 129.036 12.5973 128.464 12.4565C127.887 12.3095 127.386 12.2621 126.991 12.2796C126.441 12.3156 126.051 12.7032 126.051 13.2453V14.0677C125.342 12.8689 124.192 12.0328 123.423 11.7923C121.367 11.1394 119.216 11.7212 117.595 14.1437C116.309 16.074 115.533 18.2546 115.231 21.3899C115.005 23.6839 115.077 26.0068 115.478 27.9706C114.995 30.1875 114.104 31.0996 113.131 31.0996C111.712 31.0996 110.69 28.6286 110.806 24.3531C110.888 21.5432 111.41 19.5731 111.987 16.7144C112.235 15.497 112.031 14.8628 111.531 14.2446C111.075 13.6913 110.096 13.4035 108.695 13.7499C107.699 14.0029 106.265 14.2733 104.961 14.4801C104.961 14.4801 105.038 14.1437 105.104 13.5506C105.44 10.439 102.278 10.692 101.272 11.6864C100.667 12.2796 100.255 12.9798 100.101 14.2384C99.854 16.2385 101.377 17.1792 101.377 17.1792C100.877 19.6254 99.6559 22.8241 98.3862 25.1357C97.7093 26.3769 97.1921 27.289 96.5223 28.2647C96.5162 27.9058 96.5162 27.5407 96.5162 27.183C96.5046 22.0366 96.5651 17.9855 96.5931 16.5263C96.621 15.097 96.6758 14.0266 96.6758 13.7736C96.6642 13.2203 96.3624 13.0035 95.724 12.7443C95.1637 12.51 94.4985 12.3394 93.8112 12.2796C92.948 12.2097 92.4202 12.7032 92.4366 13.2852V14.0677C91.7224 12.8689 90.5726 12.0328 89.8142 11.7923C87.7523 11.1394 85.603 11.7212 83.9814 14.1437C82.7 16.074 81.853 18.7731 81.6107 21.36C81.3917 23.7837 81.4301 25.8298 81.7377 27.5594C81.408 29.2877 80.4679 31.0996 79.402 31.0996C78.0437 31.0996 77.2678 29.8111 77.2678 23.9307C77.2678 20.5014 77.3669 19.0086 77.417 16.5263C77.4438 15.097 77.4938 13.9979 77.488 13.745C77.4821 12.9861 76.2462 12.5973 75.6684 12.4565C75.0696 12.3044 74.5466 12.2571 74.1504 12.2796C73.6227 12.3268 73.2546 12.8266 73.2546 13.2091V14.0677C72.5405 12.8689 71.3907 12.0328 70.6265 11.7923C68.5704 11.1394 66.4373 11.7338 64.8041 14.1437C63.7382 15.7151 62.875 17.4609 62.43 21.3313C62.3088 22.4491 62.2483 23.4946 62.254 24.4715C61.83 27.2466 59.9557 30.4466 58.4272 30.4466C57.5255 30.4466 56.6682 28.5874 56.6682 24.6185C56.6682 19.3376 56.9757 11.8097 57.0305 11.0808C57.0305 11.0808 58.9654 11.0446 59.3452 11.0396C60.3074 11.0334 61.187 11.0571 62.4684 10.9861C63.1173 10.9512 63.7382 8.47513 63.0672 8.16363C62.7701 8.02774 60.6371 7.90438 59.7902 7.88699C59.0761 7.86952 57.1015 7.71129 57.1015 7.71129C57.1015 7.71129 57.2786 2.71807 57.3171 2.1947C57.3497 1.74732 56.8219 1.52432 56.5144 1.38843C55.7711 1.04825 55.106 0.888805 54.3255 0.718056C53.2316 0.477586 52.7423 0.713102 52.6491 1.69376C52.5058 3.18284 52.4289 7.5468 52.4289 7.5468C51.6263 7.5468 48.905 7.37484 48.107 7.37484C47.3661 7.37484 46.5623 10.7866 47.591 10.8278C48.7733 10.8751 50.8237 10.9225 52.1867 10.9623C52.1867 10.9623 52.126 18.6147 52.126 20.9724V21.7014C51.3735 25.8821 48.7395 28.1414 48.7395 28.1414C49.3057 25.3712 48.1513 23.2952 46.0625 21.5432C45.2925 20.8902 43.7757 19.6603 42.0761 18.3257C42.0761 18.3257 43.0604 17.2852 43.9341 15.2029C44.5505 13.7263 44.5784 12.0278 43.0604 11.6565C40.5535 11.0396 38.4916 13.0097 37.8706 15.1144C37.3977 16.7381 37.6458 17.9493 38.5848 19.2017L38.7991 19.4846C38.2388 20.6484 37.4582 22.2185 36.8036 23.436C34.9734 26.818 33.593 29.4884 32.5539 29.4884C31.7186 29.4884 31.7291 26.7769 31.7291 24.236C31.7291 22.0479 31.8829 18.7493 32.004 15.3387C32.0425 14.2147 31.5148 13.568 30.6306 12.9861C30.0911 12.6334 28.9472 11.9394 28.282 11.9394C27.293 11.9394 24.4225 12.0801 21.7129 20.4603C21.3715 21.5194 20.7005 23.4423 20.7005 23.4423L20.7612 13.3624C20.7612 13.1268 20.6458 12.9039 20.3767 12.7443C19.9201 12.4801 18.6945 11.9394 17.617 11.9394C17.0939 11.9394 16.8353 12.1985 16.8353 12.7095L16.7479 28.4703C16.7479 29.6703 16.7747 31.0697 16.8854 31.6816C16.9949 32.2934 17.1766 32.7931 17.3968 33.0921C17.617 33.3812 17.8744 33.6043 18.2926 33.704C18.6829 33.7924 20.8322 34.0803 20.9429 33.2043C21.0803 32.1513 21.085 31.0174 22.2127 26.7657C23.9717 20.1549 26.2597 16.9325 27.3372 15.7848C27.5294 15.5855 27.7438 15.573 27.7321 15.9032C27.6832 17.3549 27.5237 20.9724 27.4141 24.0479C27.1229 32.2872 28.5185 33.8099 30.5257 33.8099C32.0541 33.8099 34.2093 32.1812 36.524 28.0653C37.9697 25.4946 39.3664 22.9837 40.3776 21.1668C41.0708 21.8596 41.8617 22.6073 42.6481 23.4073C44.4793 25.2591 45.0782 27.0236 44.6774 28.6946C44.3745 29.9756 43.2259 31.2928 41.1861 30.0118C40.592 29.6404 40.3392 29.3526 39.7404 28.9288C39.4212 28.6996 38.9261 28.6348 38.6349 28.8703C37.8649 29.4884 37.4303 30.2697 37.1775 31.2405C36.941 32.1875 37.8264 32.6809 38.7443 33.1158C39.5307 33.4984 41.2245 33.8336 42.3068 33.8747C46.5238 34.028 49.8998 31.699 52.2472 25.7002C52.6712 30.8816 54.4571 33.8162 57.564 33.8162C59.6469 33.8162 61.731 30.9401 62.6443 28.1115C62.9018 29.2641 63.292 30.2634 63.793 31.1171C66.1904 35.1744 70.8408 34.3046 73.1719 30.8578C73.8977 29.7875 74.0084 29.4049 74.0084 29.4049C74.3485 32.6585 76.8007 33.8037 78.2033 33.8037C79.7806 33.8037 81.3976 33.005 82.5345 30.2634C82.672 30.5638 82.8153 30.8466 82.9807 31.1171C85.3723 35.1744 90.0228 34.3046 92.3597 30.8578C92.4645 30.6872 92.5635 30.5463 92.645 30.4105L92.7173 32.5513C92.7173 32.5513 91.3811 33.8573 90.5622 34.6623C86.9613 38.1975 84.2226 40.8791 84.0199 43.9957C83.767 47.977 86.7796 49.4537 89.0664 49.6468C91.486 49.8537 93.5643 48.4243 94.8387 46.4131C95.9605 44.6486 96.6979 40.8555 96.6432 37.1034C96.6211 35.5981 96.5873 33.6928 96.5546 31.6405C97.8245 30.0765 99.2538 28.0877 100.563 25.76C101.997 23.2304 103.526 19.8248 104.306 17.1731C104.306 17.1731 105.642 17.1855 107.061 17.0908C107.518 17.0609 107.65 17.1618 107.561 17.5145C107.462 17.9431 105.769 24.9363 107.314 29.5943C108.375 32.7807 110.755 33.8099 112.174 33.8099C113.828 33.8099 115.413 32.4691 116.258 30.4816C116.363 30.6996 116.468 30.9164 116.589 31.1171C118.981 35.1744 123.615 34.2984 125.968 30.8578C126.502 30.0765 126.799 29.4049 126.799 29.4049C127.304 32.7756 129.757 33.8162 131.158 33.8162C132.626 33.8162 134.011 33.1756 135.139 30.3283C135.183 31.5819 135.254 32.6049 135.375 32.9277C135.446 33.1283 135.864 33.375 136.161 33.4984C137.502 34.028 138.866 33.7751 139.366 33.6629C139.718 33.5868 139.993 33.2928 140.027 32.5164C140.125 30.4816 140.064 27.0647 140.642 24.5189C141.615 20.2609 142.516 18.6086 142.945 17.7911C143.183 17.3313 143.456 17.2553 143.462 17.7375C143.479 18.7194 143.529 21.6017 143.907 25.4834C144.177 28.3295 144.546 30.0167 144.831 30.5526C145.634 32.0753 146.634 32.1463 147.443 32.1463C147.96 32.1463 149.038 31.9931 148.943 31.0223C148.894 30.5526 148.977 27.6292 149.928 23.431C150.554 20.6846 151.593 18.2086 151.967 17.3026C152.111 16.9674 152.171 17.2266 152.171 17.2789C152.089 19.1668 151.913 25.3475 152.627 28.7232C153.607 33.3052 156.426 33.8162 157.41 33.8162C159.505 33.8162 161.226 32.1102 161.803 27.618C161.946 26.5351 161.737 25.7002 161.116 25.7002H161.116ZM73.2103 22.925C73.095 25.3001 72.6604 27.2889 71.9684 28.7294C70.7033 31.3463 68.2138 32.1699 67.1188 28.4004C66.322 25.6777 66.5911 21.9605 66.9266 19.9543C67.41 16.9786 68.6367 14.8739 70.5495 15.067C72.5066 15.2739 73.4631 17.973 73.2103 22.925ZM92.3925 22.9599C92.2829 25.2004 91.7389 27.4584 91.1448 28.7294C89.9193 31.3637 87.3564 32.1874 86.2951 28.4004C85.5706 25.806 85.7406 22.4602 86.1029 20.3543C86.5712 17.6141 87.6977 15.067 89.727 15.067C91.7005 15.067 92.6732 17.3847 92.3925 22.9599V22.9599ZM92.8933 38.2734C92.8654 42.3732 92.2666 45.9607 90.9793 47.0074C89.1434 48.4891 86.6749 47.3713 87.1863 44.3844C87.6371 41.7376 89.776 39.0386 92.8992 35.7388C92.8992 35.7388 92.9097 36.4914 92.8931 38.2734H92.8933ZM126.013 22.9836C125.902 25.4484 125.391 27.3712 124.759 28.7294C123.532 31.3637 120.993 32.1811 119.909 28.4004C119.321 26.3356 119.293 22.8889 119.717 20.0141C120.146 17.0845 121.351 14.8739 123.34 15.067C125.308 15.2676 126.227 17.973 126.013 22.9836Z" fill="#231E1F"/>
</svg>
